<svg width="422" height="378" viewBox="0 0 422 378" fill="none" xmlns="http://www.w3.org/2000/svg">
<g filter="url(#filter0_bd)">
<rect x="49" y="49" width="300" height="256.299" rx="23.622" fill="#181620" fill-opacity="0.85" shape-rendering="crispEdges"/>
<rect x="49" y="49" width="300" height="256.299" rx="23.622" stroke="white" stroke-opacity="0.2" stroke-width="2.3622" shape-rendering="crispEdges"/>
</g>
<mask id="mask0" style="mask-type:alpha" maskUnits="userSpaceOnUse" x="47" y="47" width="304" height="260">
<rect x="49" y="49" width="300" height="256.299" rx="23.622" fill="#181620" stroke="white" stroke-width="2.3622"/>
</mask>
<g mask="url(#mask0)">
</g>
<rect x="79" y="124" width="4" height="95" fill="white" fill-opacity="0.2"/>
<rect x="75" y="182" width="40" height="12" rx="6" transform="rotate(-90 75 182)" fill="#89D85D"/>
<rect x="143" y="130" width="4" height="129" fill="white" fill-opacity="0.2"/>
<rect x="139" y="230" width="48" height="12" rx="6" transform="rotate(-90 139 230)" fill="#89D85D"/>
<rect x="111" y="110" width="4" height="123" fill="white" fill-opacity="0.2"/>
<rect x="107" y="214" width="51" height="12" rx="6" transform="rotate(-90 107 214)" fill="#FF5F56"/>
<rect x="175" y="120" width="4" height="145" fill="white" fill-opacity="0.2"/>
<rect x="171" y="211" width="68" height="12" rx="6" transform="rotate(-90 171 211)" fill="#FF5F56"/>
<rect x="255" y="100" width="4" height="165" fill="white" fill-opacity="0.2"/>
<rect x="251" y="211" width="88" height="12" rx="6" transform="rotate(-90 251 211)" fill="#FF5F56"/>
<rect x="215" y="90" width="4" height="145" fill="white" fill-opacity="0.2"/>
<rect x="211" y="163" width="50" height="12" rx="6" transform="rotate(-90 211 163)" fill="#89D85D"/>
<rect x="285" y="70" width="4" height="97" fill="white" fill-opacity="0.2"/>
<rect x="281" y="121" width="34" height="12" rx="6" transform="rotate(-90 281 121)" fill="#89D85D"/>
<rect x="315" y="120" width="4" height="110" fill="white" fill-opacity="0.2"/>
<rect x="311" y="206" width="69" height="12" rx="6" transform="rotate(-90 311 206)" fill="#FF5F56"/>
<defs>
<filter id="filter0_bd" x="0.574753" y="0.574753" width="420.473" height="376.772" filterUnits="userSpaceOnUse" color-interpolation-filters="sRGB">
<feFlood flood-opacity="0" result="BackgroundImageFix"/>
<feGaussianBlur in="BackgroundImage" stdDeviation="5.90551"/>
<feComposite in2="SourceAlpha" operator="in" result="effect1_backgroundBlur"/>
<feColorMatrix in="SourceAlpha" type="matrix" values="0 0 0 0 0 0 0 0 0 0 0 0 0 0 0 0 0 0 127 0" result="hardAlpha"/>
<feOffset dx="11.811" dy="11.811"/>
<feGaussianBlur stdDeviation="29.5276"/>
<feComposite in2="hardAlpha" operator="out"/>
<feColorMatrix type="matrix" values="0 0 0 0 0 0 0 0 0 0 0 0 0 0 0 0 0 0 0.5 0"/>
<feBlend mode="normal" in2="effect1_backgroundBlur" result="effect2_dropShadow"/>
<feBlend mode="normal" in="SourceGraphic" in2="effect2_dropShadow" result="shape"/>
</filter>
</defs>
</svg>
