<svg width="248" height="195" viewBox="0 0 248 195" fill="none" xmlns="http://www.w3.org/2000/svg">
<rect x="4" y="54" width="4" height="95" fill="white" fill-opacity="0.2"/>
<rect y="112" width="40" height="12" rx="6" transform="rotate(-90 0 112)" fill="#89D85D"/>
<rect x="68" y="60" width="4" height="129" fill="white" fill-opacity="0.2"/>
<rect x="64" y="160" width="48" height="12" rx="6" transform="rotate(-90 64 160)" fill="#89D85D"/>
<rect x="36" y="40" width="4" height="123" fill="white" fill-opacity="0.2"/>
<rect x="32" y="144" width="51" height="12" rx="6" transform="rotate(-90 32 144)" fill="#FF5F56"/>
<rect x="100" y="50" width="4" height="145" fill="white" fill-opacity="0.2"/>
<rect x="96" y="141" width="68" height="12" rx="6" transform="rotate(-90 96 141)" fill="#FF5F56"/>
<rect x="180" y="30" width="4" height="165" fill="white" fill-opacity="0.2"/>
<rect x="176" y="141" width="88" height="12" rx="6" transform="rotate(-90 176 141)" fill="#FF5F56"/>
<rect x="140" y="20" width="4" height="145" fill="white" fill-opacity="0.2"/>
<rect x="136" y="93" width="50" height="12" rx="6" transform="rotate(-90 136 93)" fill="#89D85D"/>
<rect x="210" width="4" height="97" fill="white" fill-opacity="0.2"/>
<rect x="206" y="51" width="34" height="12" rx="6" transform="rotate(-90 206 51)" fill="#89D85D"/>
<rect x="240" y="50" width="4" height="110" fill="white" fill-opacity="0.2"/>
<rect x="236" y="136" width="69" height="12" rx="6" transform="rotate(-90 236 136)" fill="#FF5F56"/>
</svg>
