<svg width="728" height="444" viewBox="0 0 728 444" fill="none" xmlns="http://www.w3.org/2000/svg">
<g filter="url(#filter0_bd)">
<rect x="25" y="25" width="589.129" height="382.117" rx="17.6739" fill="#181620" shape-rendering="crispEdges"/>
<rect x="25" y="25" width="589.129" height="382.117" rx="17.6739" stroke="white" stroke-opacity="0.2" stroke-width="1.17826" shape-rendering="crispEdges"/>
</g>
<rect x="148.717" y="42.6741" width="1.17826" height="346.997" rx="0.589129" fill="white" fill-opacity="0.1"/>
<rect x="319.564" y="42.6741" width="1.17826" height="346.997" rx="0.589129" fill="white" fill-opacity="0.1"/>
<circle cx="42.9685" cy="52.9837" r="4.41847" fill="#FF5F56"/>
<circle cx="60.6421" cy="52.9837" r="4.41847" fill="#F8D345"/>
<circle cx="78.3162" cy="52.9837" r="4.41847" fill="#89D85D"/>
<rect x="33.2478" y="66.2393" width="107.221" height="10.0152" rx="5.00759" fill="#726C86"/>
<rect x="33.2478" y="83.9128" width="61.2694" height="10.0152" rx="5.00759" fill="#726C86" fill-opacity="0.5"/>
<rect x="159.321" y="48.5652" width="61.2694" height="10.0152" rx="5.00759" fill="#726C86" fill-opacity="0.5"/>
<rect x="33.2478" y="101.587" width="76.5867" height="10.0152" rx="5.00759" fill="#726C86" fill-opacity="0.5"/>
<rect x="33.2478" y="119.261" width="68.9281" height="10.0152" rx="5.00759" fill="#726C86" fill-opacity="0.5"/>
<rect x="33.2478" y="136.345" width="49.4868" height="10.0152" rx="5.00759" fill="#726C86" fill-opacity="0.5"/>
<rect x="35.6042" y="342.541" width="101.919" height="32.9912" rx="16.4956" fill="#8A79FF"/>
<g filter="url(#filter1_b)">
<rect x="158.143" y="77.4324" width="153.173" height="41.239" rx="5.89129" fill="#50496A" fill-opacity="0.2"/>
</g>
<rect x="281.742" y="92.7498" width="25.4504" height="4.71303" rx="2.35651" fill="#726C86"/>
<rect x="271.845" y="104.532" width="35.3477" height="4.71303" rx="2.35651" fill="#89D85D"/>
<rect x="162.267" y="89.2151" width="24.1543" height="5.89129" rx="2.94564" fill="#726C86"/>
<rect x="162.267" y="100.998" width="37.7042" height="5.89129" rx="2.94564" fill="#4B4257"/>
<path d="M214.086 97.084C211.807 97.9837 205.273 104.574 205.273 104.574V115.717C224.518 115.505 263.008 115.208 263.008 115.717V80.3779C260.117 83.3175 252.697 84.0343 248.404 84.8726C243.681 85.7949 243.067 90.2926 239.588 91.6778C235.906 93.1436 232.39 89.0088 229.699 91.6778C227.84 93.5224 225.601 95.6665 223.315 97.084C221.017 98.5088 216.647 96.073 214.086 97.084Z" fill="url(#paint0_linear)"/>
<path d="M205.613 104.642C205.613 104.642 211.807 97.9784 214.086 97.0789C216.647 96.0682 221.017 98.5033 223.315 97.0789C225.601 95.6619 227.84 93.5184 229.699 91.6743C232.39 89.0061 235.906 93.1397 239.588 91.6743C243.067 90.2895 244.021 85.7931 248.744 84.871C253.037 84.033 259.778 83.616 262.668 80.6772" stroke="#89D85D" stroke-width="1.76739" stroke-linecap="round" stroke-linejoin="round"/>
<g filter="url(#filter2_b)">
<rect x="158.143" y="130.454" width="153.173" height="41.239" rx="5.89129" fill="#50496A" fill-opacity="0.2"/>
</g>
<rect x="281.742" y="145.771" width="25.4504" height="4.71303" rx="2.35651" fill="#726C86"/>
<rect x="271.845" y="157.554" width="35.3477" height="4.71303" rx="2.35651" fill="#FF5F56"/>
<rect x="162.267" y="142.237" width="24.1543" height="5.89129" rx="2.94564" fill="#726C86"/>
<rect x="162.267" y="154.019" width="37.7042" height="5.89129" rx="2.94564" fill="#4B4257"/>
<path d="M214.086 150.106C211.807 151.006 205.273 157.596 205.273 157.596V168.739C224.518 168.527 263.008 168.23 263.008 168.739L263.008 137.229C260.117 140.169 253.751 139.337 249.458 140.175C244.735 141.097 243.216 144.681 239.737 146.066C236.056 147.532 231.234 143.397 228.544 146.066C226.684 147.911 226.482 153.431 223.831 154.02C221.191 154.606 216.647 149.095 214.086 150.106Z" fill="url(#paint1_linear)"/>
<path d="M205.613 157.664C205.613 157.664 211.807 151.001 214.086 150.101C216.647 149.09 222.122 155.444 224.42 154.019C226.706 152.602 226.39 147.91 228.249 146.066C230.94 143.398 236.645 147.532 240.326 146.066C243.805 144.681 245.029 140.802 249.752 139.88C254.046 139.042 259.823 140.168 262.713 137.229" stroke="#FF5F56" stroke-width="1.76739" stroke-linecap="round" stroke-linejoin="round"/>
<g filter="url(#filter3_b)">
<rect x="158.143" y="183.476" width="153.173" height="41.239" rx="5.89129" fill="#50496A" fill-opacity="0.2"/>
</g>
<rect x="281.742" y="198.793" width="25.4504" height="4.71303" rx="2.35651" fill="#726C86"/>
<rect x="271.845" y="210.576" width="35.3477" height="4.71303" rx="2.35651" fill="#89D85D"/>
<rect x="162.267" y="195.258" width="24.1543" height="5.89129" rx="2.94564" fill="#726C86"/>
<rect x="162.267" y="207.041" width="37.7042" height="5.89129" rx="2.94564" fill="#4B4257"/>
<path d="M214.086 203.127C211.807 204.027 205.273 210.617 205.273 210.617V221.76C224.518 221.548 263.008 221.251 263.008 221.76V186.421C260.117 189.361 252.697 190.077 248.404 190.916C243.681 191.838 243.067 196.336 239.588 197.721C235.906 199.187 232.39 195.052 229.699 197.721C227.84 199.565 225.601 201.709 223.315 203.127C221.017 204.552 216.647 202.116 214.086 203.127Z" fill="url(#paint2_linear)"/>
<path d="M205.613 210.685C205.613 210.685 211.807 204.021 214.086 203.122C216.647 202.111 221.017 204.546 223.315 203.122C225.601 201.705 227.84 199.561 229.699 197.717C232.39 195.049 235.906 199.183 239.588 197.717C243.067 196.333 244.021 191.836 248.744 190.914C253.037 190.076 259.778 189.659 262.668 186.72" stroke="#89D85D" stroke-width="1.76739" stroke-linecap="round" stroke-linejoin="round"/>
<g filter="url(#filter4_b)">
<rect x="158.143" y="236.497" width="153.173" height="41.239" rx="5.89129" fill="#50496A" fill-opacity="0.2"/>
</g>
<rect x="281.742" y="251.814" width="25.4504" height="4.71303" rx="2.35651" fill="#726C86"/>
<rect x="271.845" y="263.597" width="35.3477" height="4.71303" rx="2.35651" fill="#FF5F56"/>
<rect x="162.267" y="248.28" width="24.1543" height="5.89129" rx="2.94564" fill="#726C86"/>
<rect x="162.267" y="260.062" width="37.7042" height="5.89129" rx="2.94564" fill="#4B4257"/>
<path d="M214.086 256.149C211.807 257.048 205.273 263.639 205.273 263.639V274.782C224.518 274.57 263.008 274.272 263.008 274.782L263.008 243.272C260.117 246.212 253.751 245.379 249.458 246.218C244.735 247.14 243.216 250.724 239.737 252.109C236.056 253.575 231.234 249.44 228.544 252.109C226.684 253.954 226.482 259.473 223.831 260.062C221.191 260.649 216.647 255.138 214.086 256.149Z" fill="url(#paint3_linear)"/>
<path d="M205.613 263.707C205.613 263.707 211.807 257.043 214.086 256.144C216.647 255.133 222.122 261.487 224.42 260.062C226.706 258.645 226.39 253.953 228.249 252.109C230.94 249.441 236.645 253.574 240.326 252.109C243.805 250.724 245.029 246.845 249.752 245.923C254.046 245.085 259.823 246.211 262.713 243.272" stroke="#FF5F56" stroke-width="1.76739" stroke-linecap="round" stroke-linejoin="round"/>
<g filter="url(#filter5_b)">
<rect x="158.143" y="289.519" width="153.173" height="41.239" rx="5.89129" fill="#50496A" fill-opacity="0.2"/>
</g>
<rect x="281.742" y="304.836" width="25.4504" height="4.71303" rx="2.35651" fill="#726C86"/>
<rect x="271.845" y="316.619" width="35.3477" height="4.71303" rx="2.35651" fill="#89D85D"/>
<rect x="162.267" y="301.301" width="24.1543" height="5.89129" rx="2.94564" fill="#726C86"/>
<rect x="162.267" y="313.084" width="37.7042" height="5.89129" rx="2.94564" fill="#4B4257"/>
<path d="M214.086 309.17C211.807 310.07 205.273 316.661 205.273 316.661V327.804C224.518 327.591 263.008 327.294 263.008 327.804V292.464C260.117 295.404 252.697 296.121 248.404 296.959C243.681 297.881 243.067 302.379 239.588 303.764C235.906 305.23 232.39 301.095 229.699 303.764C227.84 305.609 225.601 307.753 223.315 309.17C221.017 310.595 216.647 308.159 214.086 309.17Z" fill="url(#paint4_linear)"/>
<path d="M205.613 316.729C205.613 316.729 211.807 310.065 214.086 309.166C216.647 308.155 221.017 310.59 223.315 309.166C225.601 307.749 227.84 305.605 229.699 303.761C232.39 301.093 235.906 305.227 239.588 303.761C243.067 302.376 244.021 297.88 248.744 296.958C253.037 296.12 259.778 295.703 262.668 292.764" stroke="#89D85D" stroke-width="1.76739" stroke-linecap="round" stroke-linejoin="round"/>
<g filter="url(#filter6_b)">
<rect x="158.143" y="342.54" width="153.173" height="41.239" rx="5.89129" fill="#50496A" fill-opacity="0.2"/>
</g>
<rect x="281.742" y="357.857" width="25.4504" height="4.71303" rx="2.35651" fill="#726C86"/>
<rect x="271.845" y="369.64" width="35.3477" height="4.71303" rx="2.35651" fill="#FF5F56"/>
<rect x="162.267" y="354.323" width="24.1543" height="5.89129" rx="2.94564" fill="#726C86"/>
<rect x="162.267" y="366.105" width="37.7042" height="5.89129" rx="2.94564" fill="#4B4257"/>
<path d="M214.086 362.192C211.807 363.091 205.273 369.682 205.273 369.682V380.825C224.518 380.613 263.008 380.315 263.008 380.825L263.008 349.315C260.117 352.255 253.751 351.422 249.458 352.261C244.735 353.183 243.216 356.767 239.737 358.152C236.056 359.618 231.234 355.483 228.544 358.152C226.684 359.997 226.482 365.516 223.831 366.105C221.191 366.692 216.647 361.181 214.086 362.192Z" fill="url(#paint5_linear)"/>
<path d="M205.613 369.75C205.613 369.75 211.807 363.086 214.086 362.187C216.647 361.176 222.122 367.529 224.42 366.105C226.706 364.688 226.39 359.996 228.249 358.152C230.94 355.484 236.645 359.617 240.326 358.152C243.805 356.767 245.029 352.888 249.752 351.966C254.046 351.128 259.823 352.254 262.713 349.315" stroke="#FF5F56" stroke-width="1.76739" stroke-linecap="round" stroke-linejoin="round"/>
<rect x="334.292" y="47.3867" width="111.345" height="10.0152" rx="5.00759" fill="#726C86" fill-opacity="0.5"/>
<rect x="334.292" y="305.425" width="47.1303" height="10.0152" rx="5.00759" fill="#726C86" fill-opacity="0.5"/>
<rect x="428.553" y="305.425" width="47.1303" height="10.0152" rx="5.00759" fill="#726C86" fill-opacity="0.5"/>
<rect x="532.829" y="305.425" width="47.1303" height="10.0152" rx="5.00759" fill="#726C86" fill-opacity="0.5"/>
<g filter="url(#filter7_b)">
<rect x="334.292" y="77.4324" width="263.341" height="206.195" rx="11.7826" fill="#50496A" fill-opacity="0.2"/>
</g>
<rect x="506.318" y="94.5173" width="58.9129" height="10.0152" rx="5.00759" fill="#726C86" fill-opacity="0.5"/>
<rect x="465.079" y="94.5173" width="29.4564" height="10.0152" rx="5.00759" fill="#726C86" fill-opacity="0.5"/>
<rect x="434.444" y="236.497" width="20.6195" height="11.7826" rx="2.94564" fill="#726C86" fill-opacity="0.5"/>
<rect x="349.61" y="236.497" width="20.6195" height="11.7826" rx="2.94564" fill="#726C86" fill-opacity="0.5"/>
<rect x="392.027" y="236.497" width="20.6195" height="11.7826" rx="2.94564" fill="#726C86" fill-opacity="0.5"/>
<rect x="476.862" y="236.497" width="20.6195" height="11.7826" rx="2.94564" fill="#726C86" fill-opacity="0.5"/>
<rect x="519.279" y="236.497" width="20.6195" height="11.7826" rx="2.94564" fill="#726C86" fill-opacity="0.5"/>
<rect x="561.696" y="236.497" width="20.6195" height="11.7826" rx="2.94564" fill="#726C86" fill-opacity="0.5"/>
<rect x="359.625" y="136.345" width="1.17826" height="88.3693" rx="0.589129" fill="white" fill-opacity="0.1"/>
<rect x="402.042" y="136.345" width="1.17826" height="88.3693" rx="0.589129" fill="white" fill-opacity="0.1"/>
<rect x="444.459" y="136.345" width="1.17826" height="88.3693" rx="0.589129" fill="white" fill-opacity="0.1"/>
<rect x="486.877" y="136.345" width="1.17826" height="88.3693" rx="0.589129" fill="white" fill-opacity="0.1"/>
<rect x="529.294" y="136.345" width="1.17826" height="88.3693" rx="0.589129" fill="white" fill-opacity="0.1"/>
<rect x="571.711" y="136.345" width="1.17826" height="88.3693" rx="0.589129" fill="white" fill-opacity="0.1"/>
<path d="M380.245 176.701C371.576 178.745 368.398 181.646 359.625 183.181V218.234H571.711V140.175C564.467 141.334 559.253 149.746 551.386 153.135C543.255 156.638 535.631 149.167 529.294 153.135C519.849 159.051 518.507 148.482 508.38 153.135C500.248 156.872 494.346 161.895 485.404 162.267C477.649 162.59 470.642 157.357 463.312 159.91C457.188 162.043 450.047 162.806 444.46 166.096C438.361 169.687 427.299 165.581 420.6 167.864C413.356 170.332 410.085 174.966 402.631 176.701C393.542 178.816 389.327 174.558 380.245 176.701Z" fill="url(#paint6_linear)"/>
<path d="M359.625 183.181C368.398 181.646 371.576 178.745 380.245 176.701C389.327 174.558 393.542 178.816 402.631 176.701C410.085 174.966 413.356 170.332 420.6 167.864C427.299 165.581 438.361 169.687 444.46 166.096C450.047 162.806 457.188 162.043 463.312 159.91C470.642 157.357 477.649 162.59 485.404 162.267C494.346 161.895 500.248 156.872 508.38 153.135C518.507 148.482 519.849 159.051 529.294 153.135C535.631 149.167 543.255 156.638 551.386 153.135C559.253 149.746 564.467 141.334 571.711 140.175" stroke="#89D85D" stroke-width="1.76739"/>
<rect x="334.292" y="330.758" width="73.6411" height="8.83693" rx="4.41847" fill="#3A3342"/>
<rect x="428.553" y="330.758" width="73.6411" height="8.83693" rx="4.41847" fill="#3A3342"/>
<rect x="522.814" y="330.758" width="73.6411" height="8.83693" rx="4.41847" fill="#3A3342"/>
<rect x="334.292" y="351.377" width="63.0368" height="8.83693" rx="4.41847" fill="#3A3342"/>
<rect x="428.553" y="351.377" width="63.0368" height="8.83693" rx="4.41847" fill="#3A3342"/>
<rect x="522.814" y="351.377" width="63.0368" height="8.83693" rx="4.41847" fill="#3A3342"/>
<rect x="334.292" y="371.997" width="43.0064" height="8.83693" rx="4.41847" fill="#3A3342"/>
<rect x="428.553" y="371.997" width="43.0064" height="8.83693" rx="4.41847" fill="#3A3342"/>
<rect x="522.814" y="371.997" width="43.0064" height="8.83693" rx="4.41847" fill="#3A3342"/>
<g filter="url(#filter8_bd)">
<rect x="508.085" y="195.258" width="176.739" height="150.993" rx="13.9164" fill="#181620" fill-opacity="0.85" shape-rendering="crispEdges"/>
<rect x="508.085" y="195.258" width="176.739" height="150.993" rx="13.9164" stroke="white" stroke-opacity="0.2" stroke-width="1.39164" shape-rendering="crispEdges"/>
</g>
<mask id="mask0" style="mask-type:alpha" maskUnits="userSpaceOnUse" x="507" y="194" width="179" height="153">
<rect x="508.085" y="195.258" width="176.739" height="150.993" rx="13.9164" fill="#181620" stroke="white" stroke-width="1.39164"/>
</mask>
<g mask="url(#mask0)">
</g>
<rect x="525.759" y="239.443" width="2.35651" height="55.9672" fill="white" fill-opacity="0.2"/>
<rect x="523.403" y="273.612" width="23.5651" height="7.06954" rx="3.53477" transform="rotate(-90 523.403 273.612)" fill="#89D85D"/>
<rect x="563.463" y="242.978" width="2.35651" height="75.9976" fill="white" fill-opacity="0.2"/>
<rect x="561.107" y="301.891" width="28.2782" height="7.06954" rx="3.53477" transform="rotate(-90 561.107 301.891)" fill="#89D85D"/>
<rect x="544.611" y="231.195" width="2.35651" height="72.4628" fill="white" fill-opacity="0.2"/>
<rect x="542.255" y="292.464" width="30.0456" height="7.06954" rx="3.53477" transform="rotate(-90 542.255 292.464)" fill="#FF5F56"/>
<rect x="582.315" y="237.086" width="2.35651" height="85.4237" fill="white" fill-opacity="0.2"/>
<rect x="579.959" y="290.697" width="40.0607" height="7.06954" rx="3.53477" transform="rotate(-90 579.959 290.697)" fill="#FF5F56"/>
<rect x="629.446" y="225.304" width="2.35651" height="97.2062" fill="white" fill-opacity="0.2"/>
<rect x="627.089" y="290.697" width="51.8433" height="7.06954" rx="3.53477" transform="rotate(-90 627.089 290.697)" fill="#FF5F56"/>
<rect x="605.881" y="219.413" width="2.35651" height="85.4237" fill="white" fill-opacity="0.2"/>
<rect x="603.524" y="262.419" width="29.4564" height="7.06954" rx="3.53477" transform="rotate(-90 603.524 262.419)" fill="#89D85D"/>
<rect x="647.12" y="207.63" width="2.35651" height="57.1455" fill="white" fill-opacity="0.2"/>
<rect x="644.763" y="237.676" width="20.0304" height="7.06954" rx="3.53477" transform="rotate(-90 644.763 237.676)" fill="#89D85D"/>
<rect x="664.793" y="237.086" width="2.35651" height="64.8042" fill="white" fill-opacity="0.2"/>
<rect x="662.437" y="287.751" width="40.6499" height="7.06954" rx="3.53477" transform="rotate(-90 662.437 287.751)" fill="#FF5F56"/>
<defs>
<filter id="filter0_bd" x="-34.502" y="-34.502" width="708.133" height="501.121" filterUnits="userSpaceOnUse" color-interpolation-filters="sRGB">
<feFlood flood-opacity="0" result="BackgroundImageFix"/>
<feGaussianBlur in="BackgroundImage" stdDeviation="29.4564"/>
<feComposite in2="SourceAlpha" operator="in" result="effect1_backgroundBlur"/>
<feColorMatrix in="SourceAlpha" type="matrix" values="0 0 0 0 0 0 0 0 0 0 0 0 0 0 0 0 0 0 127 0" result="hardAlpha"/>
<feOffset dx="5.89129" dy="5.89129"/>
<feGaussianBlur stdDeviation="14.7282"/>
<feComposite in2="hardAlpha" operator="out"/>
<feColorMatrix type="matrix" values="0 0 0 0 0 0 0 0 0 0 0 0 0 0 0 0 0 0 0.5 0"/>
<feBlend mode="normal" in2="effect1_backgroundBlur" result="effect2_dropShadow"/>
<feBlend mode="normal" in="SourceGraphic" in2="effect2_dropShadow" result="shape"/>
</filter>
<filter id="filter1_b" x="152.252" y="71.5411" width="164.956" height="53.0216" filterUnits="userSpaceOnUse" color-interpolation-filters="sRGB">
<feFlood flood-opacity="0" result="BackgroundImageFix"/>
<feGaussianBlur in="BackgroundImage" stdDeviation="2.94564"/>
<feComposite in2="SourceAlpha" operator="in" result="effect1_backgroundBlur"/>
<feBlend mode="normal" in="SourceGraphic" in2="effect1_backgroundBlur" result="shape"/>
</filter>
<filter id="filter2_b" x="152.252" y="124.563" width="164.956" height="53.0216" filterUnits="userSpaceOnUse" color-interpolation-filters="sRGB">
<feFlood flood-opacity="0" result="BackgroundImageFix"/>
<feGaussianBlur in="BackgroundImage" stdDeviation="2.94564"/>
<feComposite in2="SourceAlpha" operator="in" result="effect1_backgroundBlur"/>
<feBlend mode="normal" in="SourceGraphic" in2="effect1_backgroundBlur" result="shape"/>
</filter>
<filter id="filter3_b" x="152.252" y="177.584" width="164.956" height="53.0213" filterUnits="userSpaceOnUse" color-interpolation-filters="sRGB">
<feFlood flood-opacity="0" result="BackgroundImageFix"/>
<feGaussianBlur in="BackgroundImage" stdDeviation="2.94564"/>
<feComposite in2="SourceAlpha" operator="in" result="effect1_backgroundBlur"/>
<feBlend mode="normal" in="SourceGraphic" in2="effect1_backgroundBlur" result="shape"/>
</filter>
<filter id="filter4_b" x="152.252" y="230.606" width="164.956" height="53.0213" filterUnits="userSpaceOnUse" color-interpolation-filters="sRGB">
<feFlood flood-opacity="0" result="BackgroundImageFix"/>
<feGaussianBlur in="BackgroundImage" stdDeviation="2.94564"/>
<feComposite in2="SourceAlpha" operator="in" result="effect1_backgroundBlur"/>
<feBlend mode="normal" in="SourceGraphic" in2="effect1_backgroundBlur" result="shape"/>
</filter>
<filter id="filter5_b" x="152.252" y="283.627" width="164.956" height="53.0213" filterUnits="userSpaceOnUse" color-interpolation-filters="sRGB">
<feFlood flood-opacity="0" result="BackgroundImageFix"/>
<feGaussianBlur in="BackgroundImage" stdDeviation="2.94564"/>
<feComposite in2="SourceAlpha" operator="in" result="effect1_backgroundBlur"/>
<feBlend mode="normal" in="SourceGraphic" in2="effect1_backgroundBlur" result="shape"/>
</filter>
<filter id="filter6_b" x="152.252" y="336.649" width="164.956" height="53.0213" filterUnits="userSpaceOnUse" color-interpolation-filters="sRGB">
<feFlood flood-opacity="0" result="BackgroundImageFix"/>
<feGaussianBlur in="BackgroundImage" stdDeviation="2.94564"/>
<feComposite in2="SourceAlpha" operator="in" result="effect1_backgroundBlur"/>
<feBlend mode="normal" in="SourceGraphic" in2="effect1_backgroundBlur" result="shape"/>
</filter>
<filter id="filter7_b" x="328.401" y="71.5411" width="275.123" height="217.978" filterUnits="userSpaceOnUse" color-interpolation-filters="sRGB">
<feFlood flood-opacity="0" result="BackgroundImageFix"/>
<feGaussianBlur in="BackgroundImage" stdDeviation="2.94564"/>
<feComposite in2="SourceAlpha" operator="in" result="effect1_backgroundBlur"/>
<feBlend mode="normal" in="SourceGraphic" in2="effect1_backgroundBlur" result="shape"/>
</filter>
<filter id="filter8_bd" x="479.557" y="166.73" width="247.712" height="221.967" filterUnits="userSpaceOnUse" color-interpolation-filters="sRGB">
<feFlood flood-opacity="0" result="BackgroundImageFix"/>
<feGaussianBlur in="BackgroundImage" stdDeviation="3.47911"/>
<feComposite in2="SourceAlpha" operator="in" result="effect1_backgroundBlur"/>
<feColorMatrix in="SourceAlpha" type="matrix" values="0 0 0 0 0 0 0 0 0 0 0 0 0 0 0 0 0 0 127 0" result="hardAlpha"/>
<feOffset dx="6.95821" dy="6.95821"/>
<feGaussianBlur stdDeviation="17.3955"/>
<feComposite in2="hardAlpha" operator="out"/>
<feColorMatrix type="matrix" values="0 0 0 0 0 0 0 0 0 0 0 0 0 0 0 0 0 0 0.5 0"/>
<feBlend mode="normal" in2="effect1_backgroundBlur" result="effect2_dropShadow"/>
<feBlend mode="normal" in="SourceGraphic" in2="effect2_dropShadow" result="shape"/>
</filter>
<linearGradient id="paint0_linear" x1="234.141" y1="80.3779" x2="234.141" y2="115.726" gradientUnits="userSpaceOnUse">
<stop stop-color="#89D85D" stop-opacity="0.4"/>
<stop offset="1" stop-color="#89D85D" stop-opacity="0"/>
</linearGradient>
<linearGradient id="paint1_linear" x1="234.14" y1="133.4" x2="234.14" y2="168.748" gradientUnits="userSpaceOnUse">
<stop stop-color="#FF5F56" stop-opacity="0.4"/>
<stop offset="1" stop-color="#FF5F56" stop-opacity="0"/>
</linearGradient>
<linearGradient id="paint2_linear" x1="234.141" y1="186.421" x2="234.141" y2="221.769" gradientUnits="userSpaceOnUse">
<stop stop-color="#89D85D" stop-opacity="0.4"/>
<stop offset="1" stop-color="#89D85D" stop-opacity="0"/>
</linearGradient>
<linearGradient id="paint3_linear" x1="234.14" y1="239.443" x2="234.14" y2="274.79" gradientUnits="userSpaceOnUse">
<stop stop-color="#FF5F56" stop-opacity="0.4"/>
<stop offset="1" stop-color="#FF5F56" stop-opacity="0"/>
</linearGradient>
<linearGradient id="paint4_linear" x1="234.141" y1="292.464" x2="234.141" y2="327.812" gradientUnits="userSpaceOnUse">
<stop stop-color="#89D85D" stop-opacity="0.4"/>
<stop offset="1" stop-color="#89D85D" stop-opacity="0"/>
</linearGradient>
<linearGradient id="paint5_linear" x1="234.14" y1="345.486" x2="234.14" y2="380.833" gradientUnits="userSpaceOnUse">
<stop stop-color="#FF5F56" stop-opacity="0.4"/>
<stop offset="1" stop-color="#FF5F56" stop-opacity="0"/>
</linearGradient>
<linearGradient id="paint6_linear" x1="465.668" y1="140.175" x2="465.668" y2="218.234" gradientUnits="userSpaceOnUse">
<stop stop-color="#89D85D" stop-opacity="0.4"/>
<stop offset="1" stop-color="#89D85D" stop-opacity="0"/>
</linearGradient>
</defs>
</svg>
