<svg width="422" height="378" viewBox="0 0 422 378" fill="none" xmlns="http://www.w3.org/2000/svg">
<g filter="url(#filter0_bd)">
<rect x="49" y="49" width="300" height="256.299" rx="23.622" fill="#181620" fill-opacity="0.75" shape-rendering="crispEdges"/>
<rect x="49" y="49" width="300" height="256.299" rx="23.622" stroke="white" stroke-opacity="0.2" stroke-width="2.3622" shape-rendering="crispEdges"/>
</g>
<mask id="mask0" style="mask-type:alpha" maskUnits="userSpaceOnUse" x="47" y="47" width="304" height="260">
<rect x="49" y="49" width="300" height="256.299" rx="23.622" fill="#181620" stroke="white" stroke-width="2.3622"/>
</mask>
<g mask="url(#mask0)">
</g>
<rect x="69.0787" y="74.9844" width="114.567" height="14.1732" rx="7.08661" fill="#726C86"/>
<rect x="69.0787" y="100.969" width="64.9606" height="14.1732" rx="7.08661" fill="#726C86" fill-opacity="0.5"/>
<rect x="258.055" y="100.969" width="64.9606" height="14.1732" rx="7.08661" fill="#89D85D"/>
<path d="M65.5354 228.528C65.5354 228.528 67.3942 215.433 73.8031 212.583C81.0049 209.38 80.3338 217.096 86.7953 212.583C93.2235 208.092 87.4723 205.434 92.7008 199.591C100.266 191.136 101.838 208.368 112.189 203.724C121.971 199.336 117.041 188.751 127.543 186.598C136.317 184.8 138.077 189.707 147.031 189.551C160.161 189.323 155.751 168.358 168.882 168.291C180.489 168.232 175.077 172.786 186.598 174.197C202.877 176.19 184.962 155.267 201.362 155.299C216.269 155.329 206.537 162.68 221.441 162.976C238.875 163.323 219.64 148.386 236.795 145.26C253.16 142.278 245.151 157.782 261.598 155.299C279.843 152.545 260.188 138.532 277.543 132.268C295.853 125.66 297.084 142.571 315.339 135.811C331.444 129.847 331.866 119.531 331.874 118.734V118.685C331.874 118.685 331.874 118.702 331.874 118.734V285.22H65.5354V228.528Z" fill="url(#paint0_linear)"/>
<path d="M66.126 227.937C66.126 227.937 67.3942 215.433 73.8031 212.583C81.0049 209.38 80.3337 217.096 86.7953 212.583C93.2235 208.092 87.4723 205.434 92.7008 199.591C100.266 191.136 101.838 208.368 112.189 203.724C121.971 199.336 117.041 188.751 127.543 186.598C136.317 184.8 138.077 189.707 147.031 189.551C160.161 189.323 155.751 168.358 168.882 168.291C180.489 168.232 175.077 172.786 186.598 174.197C202.877 176.19 184.962 155.267 201.362 155.299C216.269 155.329 206.537 162.68 221.441 162.976C238.875 163.323 219.64 148.386 236.795 145.26C253.16 142.278 245.151 157.782 261.598 155.299C279.843 152.545 260.188 138.532 277.543 132.268C295.853 125.66 297.084 142.571 315.339 135.811C332.098 129.605 331.874 118.685 331.874 118.685" stroke="#89D85D" stroke-width="1.1811" stroke-linecap="round" stroke-linejoin="round"/>
<path d="M65.5355 228.528C65.5355 228.528 67.3942 215.433 73.8032 212.583C81.0049 209.38 80.3338 217.096 86.7953 212.583C93.2235 208.092 87.4723 205.434 92.7008 199.591C100.266 191.136 101.838 208.368 112.189 203.724C121.971 199.336 117.041 188.751 127.543 186.598C136.317 184.8 138.077 189.707 147.032 189.551C160.161 189.323 155.751 168.358 168.882 168.291C180.489 168.232 175.077 172.786 186.598 174.197C202.877 176.19 184.962 155.267 201.362 155.299C216.269 155.329 206.537 162.68 221.441 162.976C238.875 163.323 219.64 148.386 236.795 145.26C253.16 142.278 245.151 157.782 261.598 155.299C279.843 152.545 260.188 138.532 277.543 132.268C295.853 125.66 297.084 142.571 315.339 135.811C331.444 129.847 331.866 119.531 331.874 118.734V118.685C331.874 118.685 331.874 118.702 331.874 118.734V285.22H65.5355V228.528Z" fill="url(#paint1_linear)"/>
<path d="M66.126 227.937C66.126 227.937 67.3942 215.433 73.8032 212.583C81.0049 209.38 80.3338 217.096 86.7953 212.583C93.2235 208.092 87.4723 205.434 92.7008 199.591C100.266 191.136 101.838 208.368 112.189 203.724C121.971 199.336 117.041 188.751 127.543 186.598C136.317 184.8 138.077 189.707 147.031 189.551C160.161 189.323 155.751 168.358 168.882 168.291C180.489 168.232 175.077 172.786 186.598 174.197C202.877 176.19 184.962 155.267 201.362 155.299C216.269 155.329 206.537 162.68 221.441 162.976C238.875 163.323 219.64 148.386 236.795 145.26C253.16 142.278 245.151 157.782 261.598 155.299C279.843 152.545 260.188 138.532 277.543 132.268C295.853 125.66 297.084 142.571 315.339 135.811C332.098 129.605 331.874 118.685 331.874 118.685" stroke="#89D85D" stroke-width="3" stroke-linecap="round" stroke-linejoin="round"/>
<defs>
<filter id="filter0_bd" x="0.574799" y="0.574753" width="420.472" height="376.772" filterUnits="userSpaceOnUse" color-interpolation-filters="sRGB">
<feFlood flood-opacity="0" result="BackgroundImageFix"/>
<feGaussianBlur in="BackgroundImage" stdDeviation="5.90551"/>
<feComposite in2="SourceAlpha" operator="in" result="effect1_backgroundBlur"/>
<feColorMatrix in="SourceAlpha" type="matrix" values="0 0 0 0 0 0 0 0 0 0 0 0 0 0 0 0 0 0 127 0" result="hardAlpha"/>
<feOffset dx="11.811" dy="11.811"/>
<feGaussianBlur stdDeviation="29.5276"/>
<feComposite in2="hardAlpha" operator="out"/>
<feColorMatrix type="matrix" values="0 0 0 0 0 0 0 0 0 0 0 0 0 0 0 0 0 0 0.5 0"/>
<feBlend mode="normal" in2="effect1_backgroundBlur" result="effect2_dropShadow"/>
<feBlend mode="normal" in="SourceGraphic" in2="effect2_dropShadow" result="shape"/>
</filter>
<linearGradient id="paint0_linear" x1="198.705" y1="118.685" x2="198.705" y2="285.22" gradientUnits="userSpaceOnUse">
<stop stop-color="#89D85D" stop-opacity="0.4"/>
<stop offset="1" stop-color="#89D85D" stop-opacity="0"/>
</linearGradient>
<linearGradient id="paint1_linear" x1="198.705" y1="118.685" x2="198.705" y2="285.22" gradientUnits="userSpaceOnUse">
<stop stop-color="#89D85D" stop-opacity="0.4"/>
<stop offset="1" stop-color="#89D85D" stop-opacity="0"/>
</linearGradient>
</defs>
</svg>
