<svg width="300" height="257" viewBox="0 0 300 257" fill="none" xmlns="http://www.w3.org/2000/svg">
<rect x="20.0787" y="25.9844" width="114.567" height="14.1732" rx="7.08661" fill="#726C86"/>
<rect x="20.0787" y="51.9685" width="64.9606" height="14.1732" rx="7.08661" fill="#726C86" fill-opacity="0.5"/>
<rect x="209.055" y="51.9685" width="64.9606" height="14.1732" rx="7.08661" fill="#89D85D"/>
<path d="M16.5354 179.528C16.5354 179.528 18.3942 166.433 24.8031 163.583C32.0049 160.38 31.3338 168.096 37.7953 163.583C44.2235 159.092 38.4723 156.434 43.7008 150.591C51.2657 142.136 52.8376 159.368 63.189 154.724C72.9708 150.336 68.0407 139.751 78.5433 137.598C87.3167 135.8 89.077 140.707 98.0315 140.551C111.161 140.323 106.751 119.358 119.882 119.291C131.489 119.232 126.077 123.786 137.598 125.197C153.877 127.19 135.962 106.267 152.362 106.299C167.269 106.329 157.537 113.68 172.441 113.976C189.875 114.323 170.64 99.3859 187.795 96.2599C204.16 93.278 196.151 108.782 212.598 106.299C230.843 103.545 211.188 89.5317 228.543 83.2677C246.853 76.6595 248.084 93.5707 266.339 86.811C282.444 80.8472 282.866 70.5305 282.874 69.7341V69.6851C282.874 69.6851 282.874 69.7017 282.874 69.7341V236.22H16.5354V179.528Z" fill="url(#paint0_linear)"/>
<path d="M17.1259 178.937C17.1259 178.937 18.3941 166.433 24.8031 163.583C32.0049 160.38 31.3337 168.096 37.7952 163.583C44.2235 159.092 38.4723 156.434 43.7007 150.591C51.2657 142.136 52.8375 159.368 63.1889 154.724C72.9707 150.336 68.0407 139.751 78.5433 137.598C87.3167 135.8 89.077 140.707 98.0315 140.551C111.161 140.323 106.751 119.358 119.882 119.291C131.489 119.232 126.077 123.786 137.598 125.197C153.877 127.19 135.962 106.267 152.362 106.299C167.269 106.329 157.537 113.68 172.441 113.976C189.875 114.323 170.64 99.3859 187.795 96.2599C204.16 93.278 196.151 108.782 212.598 106.299C230.843 103.545 211.188 89.5317 228.543 83.2677C246.853 76.6595 248.084 93.5707 266.339 86.811C283.098 80.6049 282.874 69.6851 282.874 69.6851" stroke="#89D85D" stroke-width="1.1811" stroke-linecap="round" stroke-linejoin="round"/>
<path d="M16.5355 179.528C16.5355 179.528 18.3942 166.433 24.8032 163.583C32.0049 160.38 31.3338 168.096 37.7953 163.583C44.2235 159.092 38.4723 156.434 43.7008 150.591C51.2658 142.136 52.8376 159.368 63.189 154.724C72.9708 150.336 68.0407 139.751 78.5433 137.598C87.3168 135.8 89.077 140.707 98.0315 140.551C111.161 140.323 106.751 119.358 119.882 119.291C131.489 119.232 126.077 123.786 137.598 125.197C153.877 127.19 135.962 106.267 152.362 106.299C167.269 106.329 157.537 113.68 172.441 113.976C189.875 114.323 170.64 99.3859 187.795 96.2599C204.16 93.278 196.151 108.782 212.598 106.299C230.843 103.545 211.188 89.5317 228.543 83.2677C246.853 76.6595 248.084 93.5707 266.339 86.811C282.444 80.8472 282.866 70.5305 282.874 69.7341V69.6851C282.874 69.6851 282.874 69.7017 282.874 69.7341V236.22H16.5355V179.528Z" fill="url(#paint1_linear)"/>
<path d="M17.126 178.937C17.126 178.937 18.3942 166.433 24.8031 163.583C32.0049 160.38 31.3338 168.096 37.7953 163.583C44.2235 159.092 38.4723 156.434 43.7008 150.591C51.2657 142.136 52.8376 159.368 63.189 154.724C72.9708 150.336 68.0407 139.751 78.5433 137.598C87.3167 135.8 89.077 140.707 98.0315 140.551C111.161 140.323 106.751 119.358 119.882 119.291C131.489 119.232 126.077 123.786 137.598 125.197C153.877 127.19 135.962 106.267 152.362 106.299C167.269 106.329 157.537 113.68 172.441 113.976C189.875 114.323 170.64 99.3859 187.795 96.2599C204.16 93.278 196.151 108.782 212.598 106.299C230.843 103.545 211.188 89.5317 228.543 83.2677C246.853 76.6595 248.084 93.5707 266.339 86.811C283.098 80.6049 282.874 69.6851 282.874 69.6851" stroke="#89D85D" stroke-width="3" stroke-linecap="round" stroke-linejoin="round"/>
<defs>
<linearGradient id="paint0_linear" x1="149.705" y1="69.6851" x2="149.705" y2="236.22" gradientUnits="userSpaceOnUse">
<stop stop-color="#89D85D" stop-opacity="0.4"/>
<stop offset="1" stop-color="#89D85D" stop-opacity="0"/>
</linearGradient>
<linearGradient id="paint1_linear" x1="149.705" y1="69.6851" x2="149.705" y2="236.22" gradientUnits="userSpaceOnUse">
<stop stop-color="#89D85D" stop-opacity="0.4"/>
<stop offset="1" stop-color="#89D85D" stop-opacity="0"/>
</linearGradient>
</defs>
</svg>
