<svg width="227" height="295" viewBox="0 0 227 295" fill="none" xmlns="http://www.w3.org/2000/svg">
<g filter="url(#filter0_b)">
<rect width="226.286" height="294.857" rx="17.1429" fill="#1D1A27" fill-opacity="0.8"/>
</g>
<rect x="14.1953" y="17.0576" width="197.896" height="50.3613" rx="8.57143" fill="white" fill-opacity="0.2"/>
<rect x="14.1953" y="120.217" width="197.896" height="142.149" rx="8.57143" fill="white" fill-opacity="0.2"/>
<rect x="21.7102" y="129.152" width="62.6252" height="124.279" rx="8.57143" fill="white" fill-opacity="0.5"/>
<rect x="91.8503" y="129.152" width="50.1002" height="58.4841" rx="8.57143" fill="white" fill-opacity="0.5"/>
<rect x="93.5203" y="194.947" width="50.1002" height="58.4841" rx="8.57143" fill="white" fill-opacity="0.5"/>
<rect x="149.466" y="129.152" width="50.1002" height="58.4841" rx="8.57143" fill="white" fill-opacity="0.5"/>
<rect x="151.135" y="194.947" width="50.1002" height="58.4841" rx="8.57143" fill="white" fill-opacity="0.5"/>
<rect x="70.8867" y="75.542" width="69.3052" height="8.12279" rx="4.06139" fill="#C4C4C4"/>
<rect x="70.8867" y="87.7261" width="35.0701" height="8.12279" rx="4.06139" fill="#C4C4C4" fill-opacity="0.5"/>
<ellipse cx="176.186" cy="79.6034" rx="4.17501" ry="4.06139" fill="#C4C4C4"/>
<ellipse cx="188.711" cy="79.6034" rx="4.17501" ry="4.06139" fill="#C4C4C4"/>
<ellipse cx="201.236" cy="79.6034" rx="4.17501" ry="4.06139" fill="#C4C4C4"/>
<ellipse cx="43.2272" cy="80.1418" rx="21.4286" ry="20.8454" fill="#C4C4C4"/>
<defs>
<filter id="filter0_b" x="-8.57143" y="-8.57143" width="243.429" height="312" filterUnits="userSpaceOnUse" color-interpolation-filters="sRGB">
<feFlood flood-opacity="0" result="BackgroundImageFix"/>
<feGaussianBlur in="BackgroundImage" stdDeviation="4.28571"/>
<feComposite in2="SourceAlpha" operator="in" result="effect1_backgroundBlur"/>
<feBlend mode="normal" in="SourceGraphic" in2="effect1_backgroundBlur" result="shape"/>
</filter>
</defs>
</svg>
