<svg width="46" height="57" viewBox="0 0 46 57" fill="none" xmlns="http://www.w3.org/2000/svg">
<path d="M25.9086 11.9722L25.9124 12.6711C25.9124 15.5756 25.697 18.2236 25.3724 19.9499L25.0881 21.0233C24.9299 21.5918 24.722 22.2391 24.5052 22.5696C23.7115 23.7784 22.1597 24.5262 20.4988 24.5262H20.3543C19.2716 24.498 16.9971 23.7479 16.9971 23.7218C13.3371 22.5095 6.27614 18.8505 3.01499 16.2419L2.06732 15.4588C1.81916 15.2465 1.54035 14.9953 1.36726 14.7995C0.789087 14.1951 0.5 13.4472 0.5 12.6994C0.5 11.8645 0.824542 11.0884 1.43817 10.4536L2.41182 9.62401L2.62997 9.44697C5.58903 6.91419 13.3153 2.77261 17.3571 1.50513L17.9673 1.3205C18.7016 1.11271 19.7304 0.864869 20.3543 0.842041C21.1479 0.842041 21.9061 0.987703 22.6288 1.27468C23.5315 1.67688 24.2515 2.31171 24.6497 3.05958C24.9033 3.57701 25.3015 5.13146 25.3015 5.15972C25.6665 6.72705 25.8782 9.20023 25.9086 11.9722ZM45.5 12.685C45.5 14.3395 43.8173 15.6809 41.7419 15.6809L32.4938 15.0352C30.8656 15.0352 29.5456 13.9829 29.5456 12.685C29.5456 11.3849 30.8656 10.3349 32.4938 10.3349L41.7419 9.68916C43.8173 9.68916 45.5 11.0306 45.5 12.685Z" fill="white"/>
<path d="M20.0914 44.3406L20.0876 45.0395C20.0876 47.9441 20.303 50.5921 20.6276 52.3183L20.9119 53.3917C21.0701 53.9602 21.278 54.6075 21.4948 54.938C22.2885 56.1468 23.8403 56.8947 25.5012 56.8947H25.6457C26.7284 56.8664 29.0029 56.1163 29.0029 56.0903C32.6629 54.8779 39.7239 51.2189 42.985 48.6103L43.9327 47.8272C44.1808 47.6149 44.4596 47.3637 44.6327 47.1679C45.2109 46.5635 45.5 45.8156 45.5 45.0678C45.5 44.2329 45.1755 43.4568 44.5618 42.822L43.5882 41.9924L43.37 41.8154C40.411 39.2826 32.6847 35.141 28.6429 33.8735L28.0327 33.6889C27.2984 33.4811 26.2696 33.2333 25.6457 33.2104C24.8521 33.2104 24.0939 33.3561 23.3712 33.6431C22.4685 34.0453 21.7485 34.6801 21.3503 35.428C21.0967 35.9454 20.6985 37.4999 20.6985 37.5281C20.3335 39.0955 20.1218 41.5686 20.0914 44.3406ZM0.5 45.0534C0.5 46.7079 2.1827 48.0493 4.25813 48.0493L13.5062 47.4036C15.1344 47.4036 16.4544 46.3513 16.4544 45.0534C16.4544 43.7533 15.1344 42.7033 13.5062 42.7033L4.25813 42.0576C2.1827 42.0576 0.5 43.399 0.5 45.0534Z" fill="white"/>
</svg>
