<svg width="46" height="50" viewBox="0 0 46 50" fill="none" xmlns="http://www.w3.org/2000/svg">
<path d="M23.0124 0C29.7122 0 35.2204 5.26477 35.5 11.9358H35.4347C35.4425 12.1297 35.4053 12.3228 35.3258 12.5H35.7161C38.7587 12.5 41.9446 14.6088 43.2221 19.6995L43.3609 20.3002L45.2832 35.7868C46.6665 45.6644 41.2624 49.8182 33.8905 49.9941L33.3962 50H12.6713C5.17944 50 -0.593639 47.2699 0.675702 36.4589L0.762262 35.7868L2.7066 20.3002C3.66535 14.818 6.88403 12.6556 9.9853 12.5082L10.3293 12.5H10.5247C10.4918 12.3134 10.4918 12.1224 10.5247 11.9358C10.8043 5.26477 16.3125 0 23.0124 0ZM15.7425 20.8232C14.5222 20.8232 13.533 21.8414 13.533 23.0973C13.533 24.3533 14.5222 25.3714 15.7425 25.3714C16.9628 25.3714 17.952 24.3533 17.952 23.0973L17.9348 22.8121C17.7984 21.6908 16.8689 20.8232 15.7425 20.8232ZM30.2145 20.8232C28.9943 20.8232 28.0051 21.8414 28.0051 23.0973C28.0051 24.3533 28.9943 25.3714 30.2145 25.3714C31.4348 25.3714 32.424 24.3533 32.424 23.0973C32.424 21.8414 31.4348 20.8232 30.2145 20.8232ZM22.9144 3.25596C18.1041 3.25596 14.2046 7.14206 14.2046 11.9358C14.2376 12.1224 14.2376 12.3134 14.2046 12.5H31.733C31.6634 12.3199 31.6266 12.1288 31.6242 11.9358C31.6242 7.14206 27.7247 3.25596 22.9144 3.25596Z" fill="white"/>
</svg>
