<svg width="60" height="60" viewBox="0 0 60 60" fill="none" xmlns="http://www.w3.org/2000/svg">
<path d="M59.0943 37.2602C55.0893 53.3352 38.8118 63.1102 22.7393 59.1002C6.67428 55.1252 -3.11071 38.8127 0.904286 22.7627C4.90428 6.67522 21.1868 -3.10728 37.2493 0.895224C53.3243 4.90772 63.1043 21.1827 59.0943 37.2652V37.2602ZM43.2193 25.7277C43.8193 21.7527 40.7843 19.6027 36.6193 18.1527L37.9693 12.7702L34.6818 11.9452L33.3693 17.2127C32.5068 16.9952 31.6068 16.7952 30.7093 16.5877L32.0243 11.2702L28.7243 10.4452L27.3743 15.8577C26.6618 15.6902 25.9618 15.5277 25.2743 15.3577L20.7368 14.2327L19.8618 17.7502C19.8618 17.7502 22.2993 18.3127 22.2493 18.3402C23.5868 18.6802 23.8243 19.5552 23.7868 20.2552L20.0943 35.0552C19.9068 35.4702 19.4943 36.0702 18.5593 35.8402C18.5968 35.8902 16.1593 35.2402 16.1593 35.2402L14.5093 39.0152L18.7843 40.0802L21.1093 40.6852L19.7593 46.1602L23.0593 46.9777L24.4093 41.5527C25.3093 41.8027 26.1718 42.0277 27.0343 42.2352L25.7593 47.6202L29.0593 48.4452L30.4218 42.9702C36.0218 44.0377 40.2468 43.6127 42.0218 38.5352C43.4468 34.4427 41.9468 32.0852 38.9793 30.5452C41.1143 30.0627 42.7293 28.6452 43.1793 25.7202H43.2043L43.2193 25.7277ZM35.6943 36.2777C34.6843 40.3777 27.8018 38.1527 25.5693 37.6027L27.3693 30.3527C29.6093 30.9277 36.7618 32.0277 35.6943 36.2777ZM36.7193 25.6777C35.7943 29.4027 30.0643 27.5152 28.2068 27.0527L29.8418 20.4527C31.7018 20.9027 37.6843 21.7627 36.7168 25.6627V25.6777H36.7193Z" fill="white"/>
</svg>
