<svg width="60" height="58" viewBox="0 0 60 58" fill="none" xmlns="http://www.w3.org/2000/svg">
<path d="M52.2334 4.7967H58.1569V51.8146H52.2334V4.7967ZM40.4384 6.49845L39.6182 6.75324C38.5915 7.07774 37.3847 6.62584 36.9696 5.76578C36.7706 5.34937 36.7611 4.88923 36.9436 4.46839C37.1553 3.98163 37.6053 3.60071 38.1763 3.42262L47.4241 0.541992L48.5498 8.78203C48.6131 9.20161 48.4952 9.63006 48.217 9.98499C47.8767 10.421 47.3297 10.7037 46.7162 10.762C46.6427 10.7696 46.5603 10.7734 46.481 10.7734C45.4346 10.7734 44.546 10.1067 44.4142 9.22443L44.2716 7.97774C33.5838 22.7764 8.97271 38.6372 7.90476 39.3204C7.54223 39.5524 7.10871 39.676 6.64984 39.676C6.03125 39.676 5.44942 39.4478 5.05456 39.0479C4.69139 38.6822 4.52153 38.2157 4.57414 37.7366C4.62928 37.239 4.9278 36.7814 5.39428 36.4848C5.64463 36.3238 30.0212 20.5657 40.4384 6.49845ZM47.4457 15.2398V51.8133H41.5234V15.2398H47.4457ZM37.0887 26.1076V51.8146H31.1646V26.1076H37.0887ZM26.3769 37.3975V51.8127H20.454V37.3975H26.3769ZM15.0528 43.0453V51.8133H9.13053V43.0453H15.0528ZM59.9994 57.4579H0V53.0631H60L59.9994 57.4579Z" fill="white"/>
</svg>
