<svg width="50" height="50" viewBox="0 0 50 50" fill="none" xmlns="http://www.w3.org/2000/svg">
<path fill-rule="evenodd" clip-rule="evenodd" d="M50 25C50 38.8071 38.8071 50 25 50C11.1929 50 0 38.8071 0 25C0 11.1929 11.1929 0 25 0C38.8071 0 50 11.1929 50 25ZM15.2773 34.7228C14.7891 34.2346 14.7891 33.4433 15.2773 32.955L23.2323 25.0001L15.2773 17.0451C14.7891 16.5569 14.7891 15.7655 15.2773 15.2773C15.7654 14.7891 16.5569 14.7891 17.045 15.2773L25 23.2323L32.955 15.2774C33.4431 14.7893 34.2346 14.7893 34.7228 15.2774C35.2109 15.7655 35.2109 16.557 34.7228 17.0451L26.7678 25.0001L34.7228 32.955C35.2109 33.4431 35.2109 34.2346 34.7228 34.7228C34.2345 35.2109 33.4431 35.2109 32.955 34.7228L25 26.7679L17.0451 34.7228C16.5569 35.211 15.7655 35.211 15.2773 34.7228Z" fill="white"/>
</svg>
