<svg width="52" height="60" viewBox="0 0 52 60" fill="none" xmlns="http://www.w3.org/2000/svg">
<path d="M51.1433 15.4489C51.1125 13.829 51.0831 12.2987 51.0831 10.8182C51.0831 9.65836 50.1431 8.71805 48.9829 8.71805C40.0013 8.71805 33.1629 6.13682 27.4628 0.594659C26.6474 -0.19836 25.3498 -0.19808 24.5346 0.594659C18.8351 6.13682 11.9978 8.71805 3.01672 8.71805C1.85687 8.71805 0.916564 9.65836 0.916564 10.8182C0.916564 12.299 0.887442 13.8298 0.85636 15.45C0.568499 30.5252 0.174231 51.1714 25.3108 59.8842C25.5337 59.9615 25.7661 60.0002 25.9986 60.0002C26.231 60.0002 26.4637 59.9615 26.6863 59.8842C51.8249 51.1711 51.4312 30.5244 51.1433 15.4489ZM25.9988 55.6713C4.4409 47.84 4.76685 30.6845 5.05611 15.5301C5.07347 14.6206 5.09027 13.7391 5.10203 12.875C13.5139 12.5199 20.2405 9.97087 25.9988 4.95458C31.7577 9.97087 38.4855 12.5202 46.8979 12.875C46.9097 13.7388 46.9265 14.6198 46.9438 15.5287C47.2328 30.6837 47.5585 47.8397 25.9988 55.6713Z" fill="white"/>
<path d="M33.2309 22.7046L23.0945 32.8405L18.769 28.515C17.9488 27.6951 16.619 27.6951 15.7991 28.515C14.9789 29.3355 14.9789 30.665 15.7991 31.4852L21.6095 37.2956C22.0195 37.7056 22.5571 37.9106 23.0945 37.9106C23.6318 37.9106 24.1695 37.7056 24.5794 37.2956L36.2006 25.6748C37.021 24.8546 37.021 23.5248 36.2008 22.7049C35.3809 21.8847 34.0511 21.8844 33.2309 22.7046Z" fill="white"/>
</svg>
